<svg id="visual" viewBox="0 0 1920 1280" width="1920" height="1280" xmlns="http://www.w3.org/2000/svg" xmlns:xlink="http://www.w3.org/1999/xlink" version="1.1"><rect x="0" y="0" width="1920" height="1280" fill="#002233"></rect><path d="M0 779L53.3 797.7C106.7 816.3 213.3 853.7 320 842.7C426.7 831.7 533.3 772.3 640 765.3C746.7 758.3 853.3 803.7 960 834.3C1066.7 865 1173.3 881 1280 872C1386.7 863 1493.3 829 1600 826C1706.7 823 1813.3 851 1866.7 865L1920 879L1920 1281L1866.7 1281C1813.3 1281 1706.7 1281 1600 1281C1493.3 1281 1386.7 1281 1280 1281C1173.3 1281 1066.7 1281 960 1281C853.3 1281 746.7 1281 640 1281C533.3 1281 426.7 1281 320 1281C213.3 1281 106.7 1281 53.3 1281L0 1281Z" fill="#00ADB5" stroke-linecap="round" stroke-linejoin="miter"></path></svg>